<?xml version="1.0" encoding="utf-8"?>
<!-- Generator: Adobe Illustrator 27.5.0, SVG Export Plug-In . SVG Version: 6.00 Build 0)  -->
<svg version="1.1" xmlns="http://www.w3.org/2000/svg" xmlns:xlink="http://www.w3.org/1999/xlink" x="0px" y="0px"
	 viewBox="0 0 500 500" style="enable-background:new 0 0 500 500;" xml:space="preserve">
<g id="BACKGROUND">
	<rect style="fill:#FFFFFF;" width="500" height="500"/>
</g>
<g id="OBJECTS">
	<g>
		<path style="fill:#C6361E;" d="M59.665,427.358h-5.108c-0.163-0.583-0.392-1.138-0.685-1.654l3.612-3.611
			c0.781-0.781,0.781-2.047,0-2.828c-0.78-0.781-2.048-0.781-2.828,0l-3.612,3.611c-0.516-0.292-1.071-0.522-1.653-0.685v-5.107
			c0-1.105-0.896-2-2-2s-2,0.895-2,2v5.107c-0.583,0.163-1.138,0.393-1.654,0.685l-3.611-3.611c-0.781-0.78-2.047-0.782-2.829,0
			c-0.781,0.78-0.781,2.047,0,2.828l3.611,3.611c-0.292,0.517-0.521,1.071-0.685,1.654h-5.107c-1.104,0-2,0.896-2,2s0.896,2,2,2
			h5.107c0.163,0.583,0.393,1.137,0.685,1.653l-3.611,3.612c-0.781,0.781-0.781,2.048,0,2.828c0.391,0.391,0.902,0.586,1.414,0.586
			c0.512,0,1.024-0.195,1.415-0.586l3.611-3.612c0.517,0.293,1.071,0.521,1.654,0.685v5.108c0,1.104,0.896,2,2,2s2-0.896,2-2v-5.108
			c0.583-0.163,1.137-0.392,1.654-0.685l3.611,3.612c0.39,0.391,0.902,0.586,1.414,0.586c0.512,0,1.024-0.195,1.414-0.586
			c0.781-0.781,0.781-2.047,0-2.828l-3.611-3.612c0.292-0.516,0.521-1.07,0.684-1.653h5.108c1.104,0,2-0.896,2-2
			S60.769,427.358,59.665,427.358z M47.39,432.806c-1.901,0-3.448-1.547-3.448-3.447s1.547-3.447,3.448-3.447
			c1.901,0,3.447,1.547,3.447,3.447S49.291,432.806,47.39,432.806z"/>
		<path style="fill:#E56730;" d="M457.228,33.346h-5.107c-0.163-0.583-0.393-1.138-0.686-1.654l3.612-3.611
			c0.781-0.781,0.781-2.047,0-2.828c-0.78-0.781-2.048-0.781-2.828,0l-3.612,3.611c-0.516-0.292-1.07-0.521-1.653-0.684v-5.108
			c0-1.104-0.896-2-2-2c-1.105,0-2,0.896-2,2v5.107c-0.583,0.163-1.138,0.393-1.653,0.685l-3.612-3.611
			c-0.781-0.781-2.047-0.781-2.828,0c-0.781,0.781-0.781,2.048,0,2.828l3.611,3.611c-0.292,0.516-0.521,1.071-0.685,1.654h-5.107
			c-1.104,0-2,0.896-2,2s0.896,2,2,2h5.107c0.163,0.583,0.393,1.137,0.685,1.653l-3.611,3.612c-0.781,0.781-0.781,2.048,0,2.828
			c0.391,0.391,0.902,0.586,1.414,0.586c0.512,0,1.024-0.195,1.415-0.586l3.61-3.612c0.517,0.293,1.071,0.522,1.654,0.685v5.108
			c0,1.104,0.895,2,2,2c1.104,0,2-0.896,2-2v-5.108c0.583-0.163,1.138-0.393,1.654-0.685l3.61,3.612
			c0.391,0.391,0.902,0.586,1.415,0.586c0.512,0,1.023-0.195,1.413-0.585c0.781-0.781,0.782-2.048,0.001-2.829L451.436,39
			c0.292-0.516,0.522-1.071,0.685-1.654h5.107c1.105,0,2-0.896,2-2S458.333,33.346,457.228,33.346z M444.954,38.793
			c-1.9,0-3.447-1.547-3.447-3.447c0-1.9,1.547-3.447,3.447-3.447c1.901,0,3.447,1.547,3.447,3.447
			C448.401,37.247,446.855,38.793,444.954,38.793z"/>
		<path style="fill:#279B9B;" d="M477.848,118.61h-3.853c-0.123-0.44-0.296-0.858-0.517-1.248l2.725-2.724
			c0.589-0.589,0.589-1.544,0-2.133c-0.589-0.589-1.545-0.589-2.134,0l-2.724,2.724c-0.39-0.22-0.808-0.393-1.248-0.516v-3.853
			c0-0.833-0.675-1.508-1.508-1.508c-0.834,0-1.509,0.675-1.509,1.508v3.853c-0.44,0.123-0.858,0.296-1.248,0.516l-2.724-2.724
			c-0.59-0.589-1.545-0.589-2.134,0c-0.589,0.589-0.589,1.545,0,2.133l2.725,2.724c-0.221,0.39-0.394,0.808-0.517,1.248h-3.854
			c-0.833,0-1.509,0.675-1.509,1.508c0,0.833,0.676,1.509,1.509,1.509h3.854c0.123,0.44,0.296,0.858,0.516,1.248l-2.724,2.724
			c-0.589,0.589-0.589,1.545,0,2.133c0.295,0.295,0.681,0.442,1.066,0.442c0.386,0,0.772-0.148,1.067-0.442l2.724-2.724
			c0.39,0.221,0.808,0.394,1.248,0.517v3.852c0,0.833,0.675,1.509,1.509,1.509c0.833,0,1.508-0.676,1.508-1.509v-3.853
			c0.44-0.122,0.858-0.296,1.248-0.516l2.724,2.724c0.295,0.295,0.681,0.442,1.066,0.442c0.387,0,0.773-0.148,1.066-0.441
			c0.59-0.589,0.59-1.545,0.001-2.134l-2.725-2.724c0.221-0.39,0.394-0.808,0.517-1.248h3.853c0.834,0,1.509-0.676,1.509-1.509
			C479.356,119.286,478.682,118.61,477.848,118.61z M468.59,122.719c-1.435,0-2.602-1.167-2.602-2.601c0-1.434,1.167-2.6,2.602-2.6
			c1.434,0,2.6,1.166,2.6,2.6C471.189,121.552,470.023,122.719,468.59,122.719z"/>
		<g>
			<g>
				<g>
					<path style="fill:#C6361E;" d="M379.106,92.238c-0.512,0-1.023-0.195-1.414-0.586c-0.781-0.781-0.781-2.047,0-2.828
						l11.668-11.667c0.781-0.781,2.047-0.781,2.828,0c0.781,0.781,0.781,2.047,0,2.828L380.52,91.652
						C380.13,92.043,379.618,92.238,379.106,92.238z"/>
				</g>
				<g>
					<path style="fill:#C6361E;" d="M390.774,92.238c-0.512,0-1.023-0.195-1.414-0.586l-11.668-11.667
						c-0.781-0.781-0.781-2.047,0-2.828c0.781-0.781,2.047-0.781,2.828,0l11.668,11.667c0.781,0.781,0.781,2.047,0,2.828
						C391.798,92.043,391.286,92.238,390.774,92.238z"/>
				</g>
			</g>
		</g>
		<g>
			<g>
				<path style="fill:#279B9B;" d="M103.234,458.05h-16.5c-1.104,0-2-0.896-2-2s0.896-2,2-2h16.5c1.104,0,2,0.896,2,2
					S104.339,458.05,103.234,458.05z"/>
			</g>
			<g>
				<path style="fill:#279B9B;" d="M94.984,466.3c-1.104,0-2-0.896-2-2v-16.5c0-1.104,0.896-2,2-2s2,0.896,2,2v16.5
					C96.984,465.404,96.089,466.3,94.984,466.3z"/>
			</g>
		</g>
		<path style="fill:#C6361E;" d="M32.63,50.519c0,2.312-1.874,4.185-4.186,4.185c-2.311,0-4.185-1.874-4.185-4.185
			c0-2.312,1.874-4.185,4.185-4.185C30.756,46.333,32.63,48.207,32.63,50.519z"/>
		<path style="fill:#279B9B;" d="M366.298,23.72c0,1.463-1.187,2.649-2.65,2.649c-1.463,0-2.648-1.186-2.648-2.649
			s1.185-2.648,2.648-2.648C365.111,21.072,366.298,22.257,366.298,23.72z"/>
		<path style="fill:#279B9B;" d="M437.603,438.761c0,1.271-1.03,2.302-2.302,2.302c-1.271,0-2.302-1.03-2.302-2.302
			c0-1.271,1.03-2.302,2.302-2.302C436.573,436.459,437.603,437.489,437.603,438.761z"/>
		<path style="fill:#279B9B;" d="M487.554,337.099c0,2.264-1.835,4.099-4.099,4.099s-4.099-1.835-4.099-4.099
			c0-2.264,1.835-4.099,4.099-4.099S487.554,334.835,487.554,337.099z"/>
		<path style="fill:#279B9B;" d="M63.278,289.702c0,2.598-2.105,4.703-4.703,4.703c-2.597,0-4.703-2.105-4.703-4.703
			c0-2.597,2.105-4.702,4.703-4.702C61.172,285,63.278,287.105,63.278,289.702z"/>
		<path style="fill:#279B9B;" d="M132.158,261.866c0,0.723-0.586,1.309-1.309,1.309c-0.723,0-1.309-0.586-1.309-1.309
			c0-0.723,0.586-1.309,1.309-1.309C131.572,260.558,132.158,261.144,132.158,261.866z"/>
		<path style="fill:#E56730;" d="M307.525,420.814c0,2.475-2.007,4.481-4.482,4.481c-2.475,0-4.48-2.007-4.48-4.481
			c0-2.474,2.006-4.48,4.48-4.48C305.519,416.333,307.525,418.34,307.525,420.814z"/>
		<g>
			<g>
				<path style="fill:#E56730;" d="M100.169,109.352c-0.512,0-1.023-0.195-1.414-0.586c-0.781-0.781-0.781-2.047,0-2.828
					l11.668-11.667c0.781-0.781,2.047-0.781,2.828,0c0.781,0.781,0.781,2.047,0,2.828l-11.668,11.667
					C101.193,109.156,100.681,109.352,100.169,109.352z"/>
			</g>
			<g>
				<path style="fill:#E56730;" d="M111.837,109.352c-0.512,0-1.023-0.195-1.414-0.586L98.755,97.099
					c-0.781-0.781-0.781-2.047,0-2.828c0.781-0.781,2.047-0.781,2.828,0l11.668,11.667c0.781,0.781,0.781,2.047,0,2.828
					C112.861,109.156,112.349,109.352,111.837,109.352z"/>
			</g>
		</g>
	</g>
	<g>
		<text transform="matrix(1 0 0 1 129.5405 225.6499)"><tspan x="0" y="0" style="fill:#212042;stroke:#212042;stroke-width:6;stroke-miterlimit:10; font-family:'Quicksand-Bold'; font-size:138.4468px; letter-spacing:-10;">4</tspan><tspan x="81.543" y="0" style="fill:#212042;stroke:#212042;stroke-width:6;stroke-miterlimit:10; font-family:'Quicksand-Bold'; font-size:138.4468px; letter-spacing:-19;">0</tspan><tspan x="160.318" y="0" style="fill:#212042;stroke:#212042;stroke-width:6;stroke-miterlimit:10; font-family:'Quicksand-Bold'; font-size:138.4468px; letter-spacing:-10;">4</tspan></text>
		<text transform="matrix(1 0 0 1 127.0742 222.3613)"><tspan x="0" y="0" style="fill:#279B9B; font-family:'Quicksand-Bold'; font-size:138.4468px; letter-spacing:-10;">4</tspan><tspan x="81.543" y="0" style="fill:#279B9B; font-family:'Quicksand-Bold'; font-size:138.4468px; letter-spacing:-19;">0</tspan><tspan x="160.318" y="0" style="fill:#279B9B; font-family:'Quicksand-Bold'; font-size:138.4468px; letter-spacing:-10;">4</tspan></text>
		<g>
			<text transform="matrix(1 0 0 1 127.0742 222.3613)"><tspan x="0" y="0" style="fill:none;stroke:#212042;stroke-width:2;stroke-miterlimit:10; font-family:'Quicksand-Bold'; font-size:138.4468px; letter-spacing:-10;">4</tspan><tspan x="81.543" y="0" style="fill:none;stroke:#212042;stroke-width:2;stroke-miterlimit:10; font-family:'Quicksand-Bold'; font-size:138.4468px; letter-spacing:-19;">0</tspan><tspan x="160.318" y="0" style="fill:none;stroke:#212042;stroke-width:2;stroke-miterlimit:10; font-family:'Quicksand-Bold'; font-size:138.4468px; letter-spacing:-10;">4</tspan></text>
		</g>
	</g>
	<g>
		<g>
			<polygon style="fill:#E56730;" points="113.803,229.511 113.426,226.922 110.424,227.359 110.889,230.553 			"/>
			<polygon style="fill:#E56730;" points="24.717,259.402 24.259,256.259 30.738,254.364 29.452,259.05 			"/>
			<path style="fill:#E56730;" d="M26.569,260.538l70.403-10.247c0,0,2.145-0.485,2.409-0.834l0.929-1.224l13.185-17.37
				c0.901-1.188-0.091-2.871-1.567-2.656l-66.783,9.72c-0.359,0.053-0.691,0.221-0.946,0.479L25.143,257.72
				C24.021,258.856,24.988,260.769,26.569,260.538z"/>
			<path style="fill:#C44127;" d="M26.184,257.896l70.403-10.247c0,0,2.145-0.485,2.409-0.834l0.929-1.224l13.185-17.37
				c0.901-1.188-0.091-2.871-1.567-2.656l-66.783,9.72c-0.359,0.052-0.691,0.22-0.946,0.479l-19.055,19.313
				C23.637,256.214,24.604,258.125,26.184,257.896z"/>
		</g>
		<path style="fill:#E56730;" d="M45.191,245.026l2.52-104.124c0.021-0.885,0.678-1.626,1.554-1.753l8.934-1.3
			c0.843-0.122,1.658,0.357,1.96,1.154l36.707,96.878c0.332,0.875-0.052,1.862-0.894,2.272c-5.395,2.63-25.052,11.143-49.153,8.73
			C45.878,246.79,45.168,245.972,45.191,245.026z"/>
		<g>
			<defs>
				<path id="SVGID_1_" d="M45.191,245.026l2.52-104.124c0.021-0.885,0.678-1.626,1.554-1.753l8.934-1.3
					c0.843-0.122,1.658,0.357,1.96,1.154l36.707,96.878c0.332,0.875-0.052,1.862-0.894,2.272c-5.395,2.63-25.052,11.143-49.153,8.73
					C45.878,246.79,45.168,245.972,45.191,245.026z"/>
			</defs>
			<clipPath id="SVGID_00000014592170683421297610000018324318418196701881_">
				<use xlink:href="#SVGID_1_"  style="overflow:visible;"/>
			</clipPath>
			<g style="clip-path:url(#SVGID_00000014592170683421297610000018324318418196701881_);">
				<g>
					<path style="fill:#FFFFFF;" d="M21.594,227.067c16.524,3.175,34.245,0.765,50.609-2.346
						c16.905-3.213,33.503-8.253,49.301-15.073c7.882-3.403,2.545-15.648-5.368-12.232c-14.743,6.365-30.08,11.092-45.857,14.09
						c-15.285,2.905-31.583,5.273-47.027,2.306c-3.541-0.681-7.033,2.387-7.456,5.798C15.326,223.393,18.04,226.384,21.594,227.067
						L21.594,227.067z"/>
				</g>
				<g>
					<path style="fill:#FFFFFF;" d="M17.747,200.636c16.524,3.175,34.245,0.765,50.609-2.346
						c16.905-3.213,33.502-8.253,49.301-15.073c7.882-3.403,2.545-15.648-5.368-12.232c-14.743,6.365-30.08,11.092-45.857,14.09
						c-15.285,2.905-31.583,5.274-47.027,2.306c-3.542-0.681-7.033,2.387-7.457,5.798C11.479,196.962,14.193,199.953,17.747,200.636
						L17.747,200.636z"/>
				</g>
				<g>
					<path style="fill:#FFFFFF;" d="M13.9,174.205c16.524,3.175,34.245,0.765,50.609-2.346c16.905-3.213,33.502-8.253,49.301-15.073
						c7.882-3.403,2.545-15.648-5.368-12.232c-14.743,6.365-30.08,11.092-45.856,14.09c-15.285,2.905-31.583,5.273-47.027,2.306
						c-3.542-0.681-7.033,2.387-7.457,5.798C7.632,170.531,10.346,173.522,13.9,174.205L13.9,174.205z"/>
				</g>
			</g>
		</g>
		<path style="fill:#C44127;" d="M59.11,138.819c0.11,0.756-2.242,1.049-5.135,1.47c-2.893,0.421-5.246,0.707-5.341,0.054
			c-0.112-0.768,2.242-1.049,5.135-1.47C56.662,138.452,59.007,138.11,59.11,138.819z"/>
	</g>
	<g>
		<g>
			<defs>
				<path id="SVGID_00000085244991311385865240000008592220524970892729_" d="M434.395,208.946c2.353-3.029,7.103-2.374,8.55,1.179
					l18.019,44.267l18.018,44.267c1.446,3.553-1.496,7.339-5.296,6.815l-47.346-6.529l-47.345-6.528
					c-3.801-0.524-5.608-4.966-3.254-7.995l29.326-37.737L434.395,208.946z"/>
			</defs>
			<use xlink:href="#SVGID_00000085244991311385865240000008592220524970892729_"  style="overflow:visible;fill:#FFFFFF;"/>
			<clipPath id="SVGID_00000169543209413055729380000014305295036912136082_">
				<use xlink:href="#SVGID_00000085244991311385865240000008592220524970892729_"  style="overflow:visible;"/>
			</clipPath>
			<g style="clip-path:url(#SVGID_00000169543209413055729380000014305295036912136082_);">
				<g>
					<g>
						<path style="fill:#279B9B;" d="M432.788,243.781c-0.021-0.002-0.043-0.003-0.064-0.006c-0.385-0.054-0.654-0.409-0.601-0.794
							l1.694-12.22c0.206-1.488,0.729-2.529,1.597-3.183c1.813-1.362,4.827-0.929,9.825-0.211c0.661,0.096,1.355,0.195,2.087,0.297
							c4.19,0.581,7.733,0.501,8.688-6.376c0.956-6.897,0.507-9.183-15.23-11.364c-9.254-1.283-14.612-3.27-16.864-6.251
							c-1.839-2.435-1.448-5.209-1.071-7.891l0.056-0.399c0.053-0.386,0.417-0.656,0.794-0.601c0.385,0.053,0.654,0.409,0.601,0.793
							l-0.057,0.402c-0.368,2.618-0.686,4.878,0.802,6.847c1.983,2.628,7.195,4.494,15.934,5.706
							c15.776,2.187,17.59,4.584,16.431,12.951c-1.13,8.15-5.898,8.184-10.275,7.578c-0.733-0.102-1.432-0.202-2.094-0.298
							c-4.477-0.644-7.435-1.07-8.778-0.058c-0.561,0.423-0.895,1.139-1.049,2.251l-1.694,12.22
							C433.468,243.538,433.147,243.798,432.788,243.781z"/>
					</g>
					<g>
						<g>
							<g>
								<path style="fill:#212042;" d="M439.33,255.566c-0.932,6.72-5.535,11.634-10.283,10.976
									c-4.748-0.658-7.842-6.639-6.91-13.359c0.932-6.719,2.338-12.077,10.283-10.975
									C440.365,243.309,440.262,248.847,439.33,255.566z"/>
							</g>
						</g>
						<g>
							<path style="fill:#279B9B;" d="M438.573,252.883c-0.011-0.001-0.021-0.002-0.032-0.003l-14.914-2.067
								c-0.193-0.027-0.327-0.205-0.301-0.396c0.026-0.194,0.203-0.322,0.396-0.301l14.915,2.067
								c0.192,0.027,0.327,0.205,0.301,0.396C438.913,252.761,438.753,252.892,438.573,252.883z"/>
						</g>
						<g>
							<path style="fill:#279B9B;" d="M431.427,250.064c-0.032-0.001-0.063-0.004-0.095-0.009c-0.969-0.135-1.513-1.589-1.264-3.384
								c0.111-0.8,0.369-1.536,0.725-2.073c0.408-0.612,0.911-0.91,1.411-0.841c0.97,0.135,1.513,1.59,1.264,3.385l0,0
								c-0.111,0.799-0.369,1.535-0.727,2.072C432.36,249.788,431.896,250.086,431.427,250.064z M432.081,244.452
								c-0.209-0.01-0.469,0.188-0.7,0.537c-0.301,0.451-0.519,1.083-0.615,1.779c-0.194,1.403,0.19,2.525,0.663,2.591
								c0.217,0.031,0.486-0.171,0.729-0.534c0.299-0.45,0.518-1.082,0.614-1.779c0.194-1.403-0.189-2.525-0.663-2.591
								C432.1,244.453,432.09,244.452,432.081,244.452z M433.12,247.094l0.007,0L433.12,247.094z"/>
						</g>
					</g>
				</g>
				<g>
					<g>
						<g>
							<path style="fill:#E0B890;" d="M435.567,290.605c-0.728-0.101-1.237-0.773-1.136-1.502l3.858-27.84
								c0.102-0.728,0.773-1.236,1.502-1.136c0.728,0.101,1.236,0.773,1.136,1.502l-3.858,27.84
								C436.968,290.197,436.295,290.706,435.567,290.605z"/>
						</g>
						<g>
							<path style="fill:#E0B890;" d="M431.386,286.289c-0.727-0.101-1.236-0.773-1.136-1.501l3.859-27.84
								c0.101-0.729,0.773-1.237,1.501-1.136c0.729,0.101,1.237,0.773,1.136,1.501l-3.858,27.84
								C432.787,285.882,432.114,286.391,431.386,286.289z"/>
						</g>
						<g>
							<path style="fill:#E0B890;" d="M426.355,283.8c-0.728-0.101-1.237-0.773-1.137-1.501l3.859-27.84
								c0.101-0.729,0.773-1.237,1.501-1.137c0.728,0.102,1.237,0.773,1.137,1.502l-3.859,27.84
								C427.756,283.393,427.083,283.901,426.355,283.8z"/>
						</g>
						<g>
							<path style="fill:#E0B890;" d="M420.715,285.706c-0.728-0.101-1.237-0.773-1.137-1.501l3.859-27.84
								c0.101-0.729,0.773-1.237,1.502-1.137c0.728,0.102,1.236,0.774,1.136,1.502l-3.859,27.84
								C422.115,285.299,421.442,285.808,420.715,285.706z"/>
						</g>
						<g>
							<path style="fill:#E0B890;" d="M422.155,285.01c-6.058-0.84-8.784-6.283-8.102-16.18c0.021-0.301,0.04-0.531,0.042-0.673
								c-0.09-0.565,0.194-1.146,0.736-1.407c0.659-0.321,1.457-0.044,1.777,0.62c0.188,0.388,0.168,0.678,0.101,1.643
								c-0.577,8.368,1.324,12.738,5.81,13.359c0.729,0.102,1.237,0.774,1.136,1.502
								C423.556,284.603,422.883,285.111,422.155,285.01z M414.211,268.526c0.001,0,0,0.001,0.001,0.001
								C414.211,268.527,414.212,268.526,414.211,268.526z M414.211,268.524C414.211,268.525,414.211,268.525,414.211,268.524
								C414.211,268.525,414.211,268.525,414.211,268.524z"/>
						</g>
					</g>
					<g>
						
							<rect x="418.809" y="274.397" transform="matrix(0.1373 -0.9905 0.9905 0.1373 89.2664 669.2605)" style="fill:#E0B890;" width="20.081" height="17.973"/>
					</g>
					<g>
						<g>
							<path style="fill:#212042;" d="M438.006,288.703c-0.23,0.043-19.562-2.712-19.562-2.712l-1.893,13.664l19.561,2.711
								l1.772-12.784"/>
						</g>
					</g>
				</g>
			</g>
		</g>
		<path style="fill:none;stroke:#C6361E;stroke-width:11;stroke-miterlimit:10;" d="M434.395,208.946
			c2.353-3.029,7.103-2.374,8.55,1.179l18.019,44.267l18.018,44.267c1.446,3.553-1.496,7.339-5.296,6.815l-47.346-6.529
			l-47.345-6.528c-3.801-0.524-5.608-4.966-3.254-7.995l29.326-37.737L434.395,208.946z"/>
	</g>
	<g>
		<text transform="matrix(1 0 0 1 161.3242 316.3018)"><tspan x="0" y="0" style="fill:#C44127; font-family:'Quicksand-Bold'; font-size:53.9399px;">Sorry, </tspan><tspan x="-61.008" y="37.398" style="fill:#E56730; font-family:'Quicksand-Bold'; font-size:31.1653px;">we’re working on it</tspan></text>
		
			<text transform="matrix(1 0 0 1 63.2773 387.833)" style="fill:#F29038; font-family:'Quicksand-Regular'; font-size:23px; letter-spacing:-1;">and we&apos;ll get it fixed as soon as we can</text>
	</g>
	<g>
		
			<text transform="matrix(1 0 0 1 204.3853 101.5183)" style="fill:#279B9B;stroke:#279B9B;stroke-width:2;stroke-linecap:round;stroke-linejoin:round;stroke-miterlimit:10; font-family:'Quicksand-Regular'; font-size:30.9663px; letter-spacing:-2;">ERROR</text>
	</g>
</g>
<g id="DESIGNED_BY_FREEPIK">
	<g id="XMLID_76_">
		<g id="XMLID_929_">
			<path id="XMLID_958_" style="fill:#279B9B;" d="M181.087,471.606c-0.246,0-0.435,0.085-0.567,0.255
				c-0.133,0.17-0.199,0.422-0.199,0.754v2.392c-0.304-0.331-0.617-0.578-0.937-0.739c-0.321-0.159-0.715-0.239-1.182-0.239
				c-0.807,0-1.458,0.283-1.953,0.848c-0.494,0.566-0.742,1.356-0.742,2.369c0,0.479,0.063,0.924,0.188,1.335
				c0.124,0.412,0.307,0.77,0.549,1.074c0.241,0.305,0.526,0.54,0.857,0.704c0.33,0.164,0.689,0.246,1.078,0.246
				c0.293,0,0.563-0.04,0.809-0.122c0.247-0.081,0.477-0.2,0.689-0.356c0.212-0.156,0.427-0.359,0.644-0.608v0.161
				c0,0.296,0.072,0.524,0.217,0.685c0.145,0.161,0.328,0.241,0.549,0.241c0.226,0,0.409-0.078,0.552-0.232
				c0.143-0.154,0.213-0.386,0.213-0.694v-7.147c0-0.306-0.066-0.534-0.199-0.691C181.521,471.685,181.332,471.606,181.087,471.606z
				 M180.021,478.447c-0.141,0.306-0.329,0.533-0.564,0.682c-0.236,0.149-0.496,0.224-0.781,0.224c-0.281,0-0.54-0.079-0.778-0.236
				c-0.237-0.155-0.424-0.388-0.561-0.696c-0.136-0.309-0.205-0.683-0.205-1.122c0-0.415,0.064-0.78,0.193-1.095
				c0.128-0.315,0.31-0.556,0.543-0.724c0.233-0.168,0.499-0.253,0.795-0.253c0.285,0,0.547,0.082,0.787,0.246
				c0.239,0.165,0.429,0.402,0.569,0.712c0.141,0.311,0.21,0.683,0.21,1.113C180.232,477.757,180.163,478.14,180.021,478.447z"/>
			<path id="XMLID_954_" style="fill:#279B9B;" d="M188.452,477.527c0.233-0.122,0.35-0.385,0.35-0.793
				c0-0.439-0.113-0.871-0.338-1.294c-0.225-0.423-0.564-0.77-1.019-1.035c-0.453-0.268-0.996-0.4-1.628-0.4
				c-0.487,0-0.93,0.077-1.33,0.233c-0.4,0.157-0.737,0.381-1.009,0.674c-0.273,0.293-0.48,0.645-0.623,1.054
				c-0.143,0.409-0.214,0.854-0.214,1.332c0,1.017,0.289,1.822,0.867,2.416c0.577,0.593,1.387,0.891,2.427,0.891
				c0.456,0,0.858-0.06,1.207-0.179c0.352-0.119,0.641-0.269,0.874-0.448c0.231-0.18,0.404-0.367,0.519-0.563
				c0.115-0.196,0.172-0.367,0.172-0.514c0-0.166-0.052-0.294-0.155-0.386c-0.103-0.091-0.237-0.137-0.403-0.137
				c-0.154,0-0.273,0.035-0.356,0.107c-0.202,0.19-0.366,0.34-0.492,0.452c-0.126,0.11-0.265,0.215-0.415,0.311
				c-0.15,0.098-0.305,0.167-0.466,0.214c-0.16,0.045-0.337,0.067-0.531,0.067c-0.289,0-0.553-0.07-0.792-0.213
				c-0.239-0.143-0.432-0.354-0.576-0.636c-0.145-0.281-0.219-0.604-0.222-0.973h3.168
				C187.89,477.708,188.219,477.647,188.452,477.527z M184.297,476.788c0.056-0.546,0.212-0.959,0.472-1.238
				c0.259-0.279,0.59-0.418,0.994-0.418c0.423,0,0.764,0.138,1.024,0.412c0.259,0.275,0.409,0.689,0.448,1.244H184.297z"/>
			<path id="XMLID_952_" style="fill:#279B9B;" d="M193.878,477.09c-0.319-0.169-0.729-0.315-1.231-0.439
				c-0.424-0.102-0.756-0.189-0.997-0.261c-0.242-0.07-0.434-0.16-0.576-0.27c-0.143-0.108-0.213-0.248-0.213-0.419
				c0-0.186,0.097-0.341,0.291-0.465c0.194-0.126,0.437-0.188,0.73-0.188c0.286,0,0.511,0.047,0.677,0.143
				c0.166,0.095,0.31,0.222,0.433,0.38c0.151,0.189,0.284,0.332,0.401,0.427c0.116,0.095,0.258,0.144,0.424,0.144
				c0.23,0,0.408-0.061,0.532-0.179c0.124-0.119,0.186-0.271,0.186-0.457c0-0.171-0.058-0.345-0.175-0.522
				c-0.116-0.178-0.286-0.34-0.51-0.486c-0.223-0.147-0.502-0.264-0.837-0.35c-0.333-0.088-0.71-0.132-1.13-0.132
				c-0.535,0-0.99,0.086-1.367,0.259c-0.378,0.173-0.665,0.403-0.858,0.691c-0.194,0.289-0.291,0.596-0.291,0.92
				c0,0.363,0.105,0.671,0.315,0.92c0.21,0.249,0.489,0.45,0.84,0.602c0.35,0.153,0.804,0.299,1.362,0.437
				c0.494,0.119,0.849,0.244,1.065,0.374c0.216,0.132,0.323,0.338,0.323,0.623c0,0.187-0.104,0.351-0.311,0.496
				c-0.208,0.145-0.474,0.216-0.798,0.216c-0.4,0-0.715-0.07-0.947-0.213c-0.232-0.143-0.431-0.357-0.597-0.647
				c-0.082-0.149-0.169-0.267-0.261-0.35c-0.091-0.083-0.221-0.125-0.39-0.125c-0.194,0-0.355,0.064-0.481,0.19
				c-0.128,0.127-0.19,0.278-0.19,0.457c0,0.27,0.099,0.537,0.296,0.805c0.198,0.266,0.505,0.489,0.92,0.667
				c0.415,0.178,0.914,0.268,1.495,0.268c0.609,0,1.127-0.082,1.552-0.246c0.425-0.164,0.747-0.406,0.964-0.725
				c0.218-0.318,0.327-0.702,0.327-1.149c0-0.296-0.082-0.56-0.246-0.791C194.438,477.461,194.197,477.26,193.878,477.09z"/>
			<path id="XMLID_950_" style="fill:#279B9B;" d="M196.486,474.016c-0.238,0-0.431,0.081-0.579,0.244
				c-0.149,0.162-0.222,0.403-0.222,0.724v4.635c0,0.317,0.073,0.56,0.222,0.73c0.148,0.171,0.341,0.256,0.579,0.256
				c0.238,0,0.433-0.083,0.588-0.249c0.154-0.166,0.232-0.412,0.232-0.737v-4.682c0-0.289-0.078-0.515-0.232-0.677
				C196.919,474.097,196.724,474.016,196.486,474.016z"/>
			<path id="XMLID_949_" style="fill:#279B9B;" d="M196.504,471.678c-0.217,0-0.409,0.073-0.573,0.223
				c-0.165,0.148-0.246,0.337-0.246,0.566c0,0.254,0.08,0.45,0.24,0.588c0.16,0.139,0.353,0.208,0.579,0.208
				c0.217,0,0.405-0.07,0.564-0.211c0.158-0.141,0.238-0.335,0.238-0.585c0-0.257-0.081-0.452-0.244-0.587
				C196.9,471.744,196.714,471.678,196.504,471.678z"/>
			<path id="XMLID_945_" style="fill:#279B9B;" d="M203.626,474.016c-0.217,0-0.396,0.078-0.535,0.232
				c-0.139,0.155-0.208,0.372-0.208,0.653v0.22c-0.289-0.376-0.602-0.651-0.938-0.828c-0.336-0.176-0.734-0.264-1.193-0.264
				c-0.384,0-0.736,0.068-1.056,0.203c-0.321,0.138-0.604,0.341-0.849,0.609c-0.245,0.269-0.433,0.6-0.566,0.992
				c-0.133,0.391-0.199,0.83-0.199,1.317c0,0.652,0.108,1.228,0.327,1.727c0.217,0.499,0.529,0.886,0.934,1.163
				c0.406,0.277,0.88,0.416,1.422,0.416c0.45,0,0.84-0.091,1.166-0.273c0.327-0.182,0.615-0.447,0.864-0.796
				c-0.008,0.531-0.02,0.915-0.036,1.155c-0.016,0.239-0.07,0.464-0.164,0.673c-0.093,0.21-0.255,0.373-0.486,0.49
				c-0.231,0.117-0.557,0.175-0.977,0.175c-0.205,0-0.387-0.02-0.545-0.056c-0.159-0.038-0.294-0.096-0.406-0.172
				c-0.112-0.078-0.216-0.17-0.309-0.279c-0.093-0.108-0.183-0.218-0.27-0.324c-0.178-0.209-0.386-0.314-0.624-0.314
				c-0.189,0-0.352,0.063-0.486,0.188c-0.135,0.124-0.202,0.285-0.202,0.482c0,0.262,0.119,0.517,0.357,0.764
				c0.238,0.247,0.576,0.448,1.014,0.605c0.439,0.156,0.938,0.234,1.496,0.234c0.609,0,1.119-0.062,1.528-0.185
				c0.409-0.122,0.741-0.311,0.994-0.563c0.253-0.254,0.438-0.574,0.551-0.961c0.115-0.389,0.173-0.851,0.173-1.39v-4.706
				c0-0.384-0.051-0.678-0.155-0.882C204.146,474.118,203.938,474.016,203.626,474.016z M202.6,478.382
				c-0.151,0.29-0.346,0.508-0.586,0.652c-0.239,0.145-0.493,0.217-0.762,0.217c-0.455,0-0.826-0.168-1.113-0.505
				c-0.287-0.336-0.43-0.833-0.43-1.489c0-0.648,0.139-1.15,0.418-1.502c0.279-0.352,0.649-0.528,1.113-0.528
				c0.475,0,0.857,0.185,1.148,0.553c0.291,0.367,0.436,0.883,0.436,1.543C202.825,477.737,202.749,478.091,202.6,478.382z"/>
			<path id="XMLID_944_" style="fill:#279B9B;" d="M210.978,475.084c-0.165-0.34-0.417-0.603-0.753-0.789
				c-0.337-0.185-0.718-0.279-1.146-0.279c-0.44,0-0.828,0.088-1.166,0.265c-0.339,0.176-0.651,0.452-0.935,0.828v-0.196
				c0-0.193-0.034-0.358-0.104-0.493c-0.07-0.133-0.162-0.234-0.276-0.302c-0.115-0.067-0.244-0.102-0.387-0.102
				c-0.233,0-0.417,0.076-0.552,0.229c-0.134,0.152-0.201,0.383-0.201,0.692v4.682c0,0.317,0.076,0.56,0.226,0.73
				c0.15,0.171,0.342,0.256,0.576,0.256c0.241,0,0.438-0.082,0.59-0.246c0.152-0.164,0.228-0.411,0.228-0.74v-2.029
				c0-0.661,0.04-1.111,0.119-1.353c0.11-0.301,0.284-0.537,0.522-0.71c0.237-0.173,0.5-0.258,0.788-0.258
				c0.444,0,0.74,0.142,0.888,0.424c0.148,0.283,0.223,0.692,0.223,1.226v2.7c0,0.317,0.074,0.56,0.226,0.73
				c0.15,0.171,0.346,0.256,0.587,0.256c0.238,0,0.431-0.083,0.579-0.249c0.148-0.166,0.223-0.412,0.223-0.737v-3.015
				c0-0.356-0.017-0.648-0.048-0.878C211.155,475.496,211.085,475.282,210.978,475.084z"/>
			<path id="XMLID_939_" style="fill:#279B9B;" d="M217.821,477.527c0.233-0.122,0.35-0.385,0.35-0.793
				c0-0.439-0.113-0.871-0.338-1.294c-0.226-0.423-0.565-0.77-1.019-1.035c-0.453-0.268-0.996-0.4-1.628-0.4
				c-0.487,0-0.93,0.077-1.33,0.233c-0.399,0.157-0.736,0.381-1.009,0.674c-0.274,0.293-0.481,0.645-0.624,1.054
				c-0.142,0.409-0.213,0.854-0.213,1.332c0,1.017,0.289,1.822,0.866,2.416c0.578,0.593,1.387,0.891,2.428,0.891
				c0.455,0,0.858-0.06,1.208-0.179c0.351-0.119,0.64-0.269,0.872-0.448c0.232-0.18,0.405-0.367,0.52-0.563
				c0.115-0.196,0.172-0.367,0.172-0.514c0-0.166-0.051-0.294-0.154-0.386c-0.103-0.091-0.238-0.137-0.404-0.137
				c-0.154,0-0.273,0.035-0.357,0.107c-0.201,0.19-0.366,0.34-0.492,0.452c-0.128,0.11-0.266,0.215-0.415,0.311
				c-0.151,0.098-0.307,0.167-0.466,0.214c-0.161,0.045-0.338,0.067-0.532,0.067c-0.288,0-0.553-0.07-0.792-0.213
				c-0.239-0.143-0.431-0.354-0.576-0.636c-0.145-0.281-0.218-0.604-0.223-0.973h3.169
				C217.26,477.708,217.588,477.647,217.821,477.527z M213.666,476.788c0.056-0.546,0.212-0.959,0.471-1.238
				c0.259-0.279,0.591-0.418,0.995-0.418c0.424,0,0.765,0.138,1.024,0.412c0.259,0.275,0.409,0.689,0.448,1.244H213.666z"/>
			<path id="XMLID_936_" style="fill:#279B9B;" d="M224.206,471.606c-0.245,0-0.434,0.085-0.567,0.255
				c-0.132,0.17-0.199,0.422-0.199,0.754v2.392c-0.304-0.331-0.617-0.578-0.938-0.739c-0.32-0.159-0.714-0.239-1.181-0.239
				c-0.808,0-1.458,0.283-1.953,0.848c-0.495,0.566-0.741,1.356-0.741,2.369c0,0.479,0.062,0.924,0.187,1.335
				c0.124,0.412,0.308,0.77,0.549,1.074c0.241,0.305,0.527,0.54,0.857,0.704c0.33,0.164,0.689,0.246,1.077,0.246
				c0.293,0,0.563-0.04,0.811-0.122c0.247-0.081,0.476-0.2,0.688-0.356c0.211-0.156,0.426-0.359,0.644-0.608v0.161
				c0,0.296,0.072,0.524,0.217,0.685c0.145,0.161,0.328,0.241,0.549,0.241c0.226,0,0.41-0.078,0.552-0.232
				c0.143-0.154,0.213-0.386,0.213-0.694v-7.147c0-0.306-0.065-0.534-0.199-0.691C224.641,471.685,224.452,471.606,224.206,471.606z
				 M223.141,478.447c-0.14,0.306-0.328,0.533-0.564,0.682c-0.235,0.149-0.495,0.224-0.781,0.224c-0.281,0-0.54-0.079-0.776-0.236
				c-0.238-0.155-0.425-0.388-0.562-0.696c-0.137-0.309-0.205-0.683-0.205-1.122c0-0.415,0.064-0.78,0.193-1.095
				c0.129-0.315,0.31-0.556,0.543-0.724c0.233-0.168,0.5-0.253,0.795-0.253c0.285,0,0.547,0.082,0.787,0.246
				c0.239,0.165,0.43,0.402,0.57,0.712c0.141,0.311,0.21,0.683,0.21,1.113C223.352,477.757,223.282,478.14,223.141,478.447z"/>
			<path id="XMLID_933_" style="fill:#279B9B;" d="M233.586,474.41c-0.406-0.255-0.877-0.382-1.415-0.382
				c-0.467,0-0.859,0.084-1.175,0.252c-0.317,0.168-0.627,0.41-0.932,0.727v-2.475c0-0.297-0.068-0.524-0.202-0.685
				c-0.135-0.16-0.326-0.24-0.576-0.24c-0.237,0-0.423,0.084-0.555,0.252c-0.133,0.168-0.198,0.417-0.198,0.745v7.075
				c0,0.304,0.068,0.535,0.205,0.691c0.136,0.156,0.319,0.234,0.549,0.234c0.226,0,0.412-0.078,0.558-0.234
				c0.146-0.156,0.22-0.388,0.22-0.691v-0.161c0.178,0.205,0.322,0.361,0.43,0.463c0.109,0.104,0.241,0.204,0.395,0.3
				c0.154,0.098,0.341,0.176,0.561,0.234c0.22,0.06,0.454,0.09,0.704,0.09c0.407,0,0.781-0.082,1.119-0.246
				c0.338-0.164,0.626-0.397,0.864-0.698c0.237-0.301,0.418-0.656,0.543-1.065c0.124-0.41,0.187-0.858,0.187-1.35
				c0-0.665-0.112-1.24-0.336-1.725C234.305,475.036,233.991,474.666,233.586,474.41z M232.796,478.821
				c-0.295,0.355-0.646,0.531-1.053,0.531c-0.479,0-0.866-0.174-1.161-0.521c-0.295-0.346-0.442-0.841-0.442-1.486
				c0-0.439,0.069-0.818,0.208-1.137c0.139-0.318,0.328-0.562,0.57-0.73c0.24-0.168,0.516-0.253,0.825-0.253
				c0.3,0,0.564,0.085,0.79,0.253c0.225,0.168,0.399,0.406,0.521,0.715c0.123,0.309,0.184,0.677,0.184,1.104
				C233.238,477.959,233.09,478.467,232.796,478.821z"/>
			<path id="XMLID_931_" style="fill:#279B9B;" d="M240.529,474.114c-0.112-0.066-0.23-0.099-0.353-0.099
				c-0.171,0-0.302,0.03-0.395,0.09c-0.093,0.059-0.181,0.174-0.264,0.344c-0.083,0.17-0.176,0.406-0.279,0.706l-1.3,3.71
				l-1.372-3.989c-0.091-0.276-0.195-0.489-0.314-0.638c-0.119-0.148-0.295-0.223-0.528-0.223c-0.135,0-0.265,0.036-0.389,0.107
				c-0.124,0.071-0.222,0.166-0.294,0.285c-0.071,0.118-0.107,0.246-0.107,0.385c0,0.131,0.062,0.342,0.185,0.629l1.994,5.021
				l-0.148,0.362c-0.111,0.266-0.209,0.466-0.294,0.602c-0.085,0.138-0.181,0.233-0.288,0.288c-0.106,0.057-0.254,0.084-0.44,0.084
				c-0.074,0-0.163-0.012-0.266-0.035c-0.083-0.024-0.168-0.037-0.256-0.037c-0.221,0-0.388,0.052-0.5,0.152
				c-0.113,0.101-0.169,0.245-0.169,0.43c0,0.273,0.119,0.461,0.356,0.565c0.237,0.102,0.593,0.153,1.068,0.153
				c0.487,0,0.873-0.074,1.161-0.223c0.287-0.147,0.517-0.361,0.691-0.639c0.174-0.277,0.353-0.658,0.535-1.145l2.113-5.532
				c0.051-0.142,0.095-0.283,0.13-0.421c0.037-0.139,0.061-0.246,0.078-0.32c0-0.123-0.032-0.239-0.093-0.351
				C240.729,474.268,240.642,474.18,240.529,474.114z"/>
		</g>
		<g id="XMLID_365_">
			<g id="XMLID_380_">
				<path id="XMLID_928_" style="fill:#279B9B;" d="M262.93,471.602c-0.533,0-0.954,0.069-1.26,0.205
					c-0.308,0.137-0.527,0.354-0.654,0.652c-0.13,0.301-0.191,0.702-0.191,1.21v0.487h-0.387c-0.543,0-0.815,0.192-0.815,0.582
					c0,0.174,0.066,0.316,0.196,0.424c0.132,0.111,0.315,0.163,0.559,0.163h0.446v4.294c0,0.319,0.074,0.563,0.228,0.729
					c0.154,0.171,0.344,0.254,0.573,0.254c0.243,0,0.439-0.083,0.589-0.254c0.155-0.167,0.23-0.41,0.23-0.729v-4.294h0.395
					c0.291,0,0.517-0.035,0.681-0.107c0.166-0.07,0.245-0.24,0.245-0.502c0-0.374-0.307-0.559-0.926-0.559h-0.395v-0.386
					c0-0.322,0.043-0.568,0.122-0.74c0.087-0.171,0.273-0.259,0.565-0.259c0.107,0,0.241,0.014,0.39,0.033
					c0.155,0.026,0.268,0.038,0.33,0.038c0.134,0,0.252-0.054,0.348-0.159c0.101-0.107,0.15-0.236,0.15-0.385
					C264.35,471.832,263.879,471.602,262.93,471.602z"/>
				<path id="XMLID_926_" style="fill:#279B9B;" d="M268.089,474.268c-0.32-0.171-0.647-0.255-0.99-0.255
					c-0.342,0-0.61,0.084-0.818,0.255c-0.202,0.171-0.4,0.422-0.593,0.755c-0.014-0.333-0.08-0.584-0.198-0.755
					c-0.119-0.171-0.313-0.255-0.583-0.255c-0.525,0-0.788,0.364-0.788,1.093v4.514c0,0.323,0.078,0.568,0.226,0.733
					c0.149,0.169,0.34,0.25,0.579,0.25c0.236,0,0.432-0.08,0.586-0.246c0.15-0.163,0.233-0.41,0.233-0.737v-1.355
					c0-0.486,0.014-0.899,0.045-1.239c0.033-0.336,0.089-0.63,0.17-0.877c0.084-0.243,0.201-0.426,0.353-0.554
					c0.149-0.122,0.345-0.186,0.582-0.186c0.172,0,0.374,0.037,0.602,0.108c0.227,0.073,0.371,0.112,0.433,0.112
					c0.158,0,0.305-0.064,0.441-0.195c0.135-0.125,0.204-0.291,0.204-0.487C268.571,474.666,268.411,474.439,268.089,474.268z"/>
				<path id="XMLID_922_" style="fill:#279B9B;" d="M274.176,477.525c0.232-0.122,0.351-0.386,0.351-0.791
					c0-0.441-0.112-0.871-0.339-1.296c-0.222-0.424-0.565-0.77-1.018-1.034c-0.453-0.27-0.997-0.403-1.629-0.403
					c-0.488,0-0.931,0.078-1.329,0.233c-0.401,0.156-0.735,0.38-1.008,0.674c-0.276,0.295-0.484,0.644-0.624,1.055
					c-0.145,0.41-0.218,0.855-0.218,1.334c0,1.017,0.292,1.822,0.87,2.417c0.576,0.594,1.385,0.889,2.429,0.889
					c0.453,0,0.857-0.06,1.207-0.179c0.349-0.116,0.64-0.267,0.874-0.446c0.232-0.182,0.404-0.367,0.522-0.566
					c0.111-0.194,0.167-0.364,0.167-0.512c0-0.166-0.048-0.293-0.152-0.386c-0.104-0.092-0.237-0.139-0.405-0.139
					c-0.152,0-0.271,0.038-0.355,0.109c-0.202,0.189-0.367,0.34-0.493,0.449c-0.128,0.113-0.264,0.217-0.415,0.311
					c-0.15,0.098-0.308,0.17-0.466,0.214c-0.16,0.048-0.336,0.068-0.531,0.068c-0.29,0-0.552-0.069-0.792-0.212
					c-0.241-0.145-0.432-0.356-0.578-0.635c-0.145-0.281-0.216-0.607-0.222-0.974h3.171
					C273.615,477.707,273.942,477.647,274.176,477.525z M270.021,476.785c0.055-0.546,0.213-0.957,0.472-1.236
					c0.26-0.28,0.592-0.417,0.995-0.417c0.426,0,0.764,0.136,1.024,0.412c0.261,0.272,0.407,0.688,0.446,1.241H270.021z"/>
				<path id="XMLID_919_" style="fill:#279B9B;" d="M280.916,477.525c0.232-0.122,0.352-0.386,0.352-0.791
					c0-0.441-0.116-0.871-0.341-1.296c-0.223-0.424-0.564-0.77-1.013-1.034c-0.46-0.27-1.003-0.403-1.634-0.403
					c-0.486,0-0.932,0.078-1.33,0.233c-0.4,0.156-0.736,0.38-1.009,0.674c-0.273,0.295-0.48,0.644-0.622,1.055
					c-0.145,0.41-0.217,0.855-0.217,1.334c0,1.017,0.29,1.822,0.867,2.417c0.58,0.594,1.387,0.889,2.43,0.889
					c0.453,0,0.859-0.06,1.208-0.179c0.347-0.116,0.641-0.267,0.872-0.446c0.234-0.182,0.408-0.367,0.518-0.566
					c0.116-0.194,0.171-0.364,0.171-0.512c0-0.166-0.047-0.293-0.15-0.386c-0.104-0.092-0.238-0.139-0.406-0.139
					c-0.151,0-0.271,0.038-0.355,0.109c-0.202,0.189-0.367,0.34-0.492,0.449c-0.128,0.113-0.264,0.217-0.415,0.311
					c-0.152,0.098-0.307,0.17-0.469,0.214c-0.157,0.048-0.335,0.068-0.527,0.068c-0.291,0-0.556-0.069-0.795-0.212
					c-0.238-0.145-0.431-0.356-0.575-0.635c-0.144-0.281-0.218-0.607-0.222-0.974h3.17
					C280.354,477.707,280.682,477.647,280.916,477.525z M276.762,476.785c0.053-0.546,0.211-0.957,0.47-1.236
					c0.26-0.28,0.592-0.417,0.995-0.417c0.425,0,0.764,0.136,1.026,0.412c0.257,0.272,0.407,0.688,0.446,1.241H276.762z"/>
				<path id="XMLID_390_" style="fill:#279B9B;" d="M286.927,474.41c-0.42-0.257-0.883-0.386-1.38-0.386
					c-0.414,0-0.789,0.089-1.113,0.267c-0.331,0.177-0.648,0.452-0.952,0.827v-0.194c0-0.296-0.071-0.518-0.218-0.678
					c-0.144-0.155-0.329-0.233-0.561-0.233c-0.232,0-0.418,0.078-0.553,0.228c-0.133,0.155-0.2,0.382-0.2,0.692v6.994
					c0,0.355,0.052,0.62,0.146,0.807c0.102,0.184,0.301,0.274,0.606,0.274c0.518,0,0.778-0.358,0.778-1.068v-2.433
					c0.286,0.358,0.586,0.634,0.9,0.816c0.313,0.187,0.704,0.279,1.165,0.279c0.386,0,0.742-0.076,1.08-0.227
					c0.334-0.152,0.622-0.372,0.868-0.653c0.245-0.283,0.44-0.633,0.58-1.05c0.14-0.419,0.21-0.878,0.21-1.376
					c0-0.677-0.122-1.261-0.366-1.758C287.675,475.045,287.346,474.669,286.927,474.41z M286.45,478.413
					c-0.137,0.313-0.32,0.546-0.552,0.704c-0.23,0.154-0.48,0.232-0.748,0.232c-0.454,0-0.828-0.179-1.133-0.536
					c-0.307-0.358-0.459-0.862-0.459-1.504c0-0.686,0.154-1.204,0.461-1.558c0.307-0.35,0.685-0.527,1.131-0.527
					c0.281,0,0.54,0.084,0.77,0.248c0.229,0.163,0.411,0.397,0.542,0.705c0.13,0.306,0.196,0.673,0.196,1.101
					C286.658,477.722,286.588,478.1,286.45,478.413z"/>
				<path id="XMLID_389_" style="fill:#279B9B;" d="M289.9,474.013c-0.238,0-0.428,0.079-0.58,0.245
					c-0.145,0.162-0.222,0.402-0.222,0.721v4.642c0,0.314,0.076,0.556,0.222,0.729c0.152,0.171,0.342,0.254,0.58,0.254
					c0.237,0,0.432-0.081,0.588-0.25c0.154-0.165,0.231-0.41,0.231-0.732v-4.688c0-0.287-0.077-0.513-0.231-0.675
					C290.332,474.092,290.138,474.013,289.9,474.013z"/>
				<path id="XMLID_388_" style="fill:#279B9B;" d="M289.917,471.673c-0.217,0-0.407,0.076-0.571,0.223
					c-0.166,0.149-0.247,0.339-0.247,0.567c0,0.254,0.08,0.447,0.242,0.586c0.158,0.139,0.35,0.209,0.576,0.209
					c0.22,0,0.408-0.07,0.566-0.209c0.157-0.141,0.236-0.335,0.236-0.586c0-0.256-0.082-0.453-0.244-0.59
					C290.314,471.739,290.13,471.673,289.917,471.673z"/>
				<path id="XMLID_387_" style="fill:#279B9B;" d="M297.258,479.042l-1.662-2.613l0.86-0.789c0.438-0.395,0.659-0.714,0.659-0.95
					c0-0.192-0.068-0.355-0.2-0.483c-0.138-0.129-0.306-0.193-0.509-0.193c-0.169,0-0.313,0.044-0.432,0.13
					c-0.121,0.086-0.29,0.252-0.517,0.486l-1.822,1.914v-3.933c0-0.33-0.074-0.582-0.221-0.751
					c-0.147-0.172-0.344-0.258-0.593-0.258c-0.256,0-0.457,0.093-0.596,0.283c-0.136,0.189-0.207,0.463-0.207,0.821v6.913
					c0,0.323,0.073,0.568,0.215,0.733c0.141,0.169,0.339,0.25,0.588,0.25c0.213,0,0.405-0.083,0.566-0.254
					c0.164-0.167,0.247-0.406,0.247-0.718v-1.291l0.88-0.83l1.428,2.354c0.182,0.277,0.329,0.471,0.436,0.58
					c0.106,0.108,0.261,0.159,0.458,0.159c0.227,0,0.413-0.073,0.554-0.221c0.142-0.151,0.214-0.352,0.214-0.609
					c0-0.089-0.029-0.19-0.082-0.289C297.47,479.382,297.379,479.238,297.258,479.042z"/>
				<path id="XMLID_386_" style="fill:#279B9B;" d="M299.449,478.816c-0.25,0-0.458,0.086-0.629,0.261
					c-0.171,0.173-0.257,0.382-0.257,0.622c0,0.287,0.091,0.51,0.268,0.666c0.18,0.159,0.39,0.237,0.634,0.237
					c0.237,0,0.444-0.078,0.624-0.241c0.174-0.157,0.264-0.379,0.264-0.662c0-0.243-0.09-0.454-0.264-0.626
					C299.909,478.902,299.698,478.816,299.449,478.816z"/>
				<path id="XMLID_385_" style="fill:#279B9B;" d="M306.835,477.89c-0.166,0-0.308,0.054-0.422,0.155
					c-0.113,0.105-0.219,0.246-0.318,0.428c-0.177,0.31-0.381,0.538-0.616,0.688c-0.23,0.15-0.509,0.226-0.834,0.226
					c-0.24,0-0.463-0.045-0.666-0.142c-0.201-0.093-0.372-0.228-0.516-0.408c-0.144-0.18-0.252-0.398-0.325-0.652
					c-0.075-0.256-0.114-0.537-0.114-0.843c0-0.646,0.146-1.161,0.439-1.533c0.293-0.375,0.682-0.561,1.158-0.561
					c0.333,0,0.606,0.075,0.82,0.228c0.219,0.147,0.424,0.375,0.623,0.674c0.108,0.157,0.209,0.269,0.299,0.339
					c0.09,0.068,0.201,0.103,0.338,0.103c0.202,0,0.377-0.068,0.524-0.202c0.143-0.135,0.214-0.301,0.214-0.492
					c0-0.191-0.062-0.398-0.192-0.617c-0.127-0.218-0.314-0.423-0.556-0.619c-0.245-0.192-0.54-0.353-0.891-0.475
					c-0.353-0.123-0.736-0.184-1.156-0.184c-0.674,0-1.26,0.139-1.747,0.419c-0.485,0.279-0.858,0.674-1.113,1.184
					c-0.259,0.511-0.387,1.098-0.387,1.765c0,0.981,0.281,1.764,0.841,2.349c0.563,0.583,1.345,0.876,2.349,0.876
					c0.469,0,0.894-0.065,1.269-0.191c0.377-0.126,0.688-0.295,0.935-0.502c0.248-0.208,0.434-0.425,0.553-0.656
					c0.122-0.229,0.183-0.446,0.183-0.646c0-0.169-0.067-0.33-0.199-0.48C307.198,477.967,307.033,477.89,306.835,477.89z"/>
				<path id="XMLID_382_" style="fill:#279B9B;" d="M313.646,474.926c-0.288-0.29-0.628-0.518-1.026-0.674
					c-0.4-0.161-0.847-0.239-1.336-0.239c-0.482,0-0.924,0.078-1.326,0.233c-0.398,0.158-0.737,0.381-1.02,0.669
					c-0.281,0.288-0.498,0.637-0.649,1.045c-0.146,0.408-0.224,0.858-0.224,1.35c0,0.485,0.076,0.929,0.22,1.331
					c0.151,0.401,0.368,0.75,0.656,1.048c0.285,0.292,0.627,0.521,1.017,0.677c0.393,0.159,0.835,0.239,1.326,0.239
					c0.492,0,0.937-0.08,1.336-0.234c0.394-0.158,0.735-0.383,1.02-0.676c0.286-0.291,0.501-0.641,0.656-1.049
					c0.146-0.408,0.222-0.855,0.222-1.336c0-0.489-0.075-0.932-0.221-1.339C314.148,475.569,313.934,475.223,313.646,474.926z
					 M312.455,478.842c-0.29,0.372-0.682,0.557-1.171,0.557c-0.324,0-0.604-0.086-0.846-0.252c-0.24-0.168-0.424-0.41-0.554-0.729
					c-0.13-0.317-0.193-0.685-0.193-1.108c0-0.429,0.066-0.804,0.197-1.125c0.131-0.321,0.314-0.564,0.556-0.727
					c0.242-0.164,0.521-0.246,0.84-0.246c0.489,0,0.881,0.183,1.171,0.555c0.289,0.367,0.436,0.881,0.436,1.543
					C312.891,477.96,312.744,478.473,312.455,478.842z"/>
				<path id="XMLID_381_" style="fill:#279B9B;" d="M323.569,474.286c-0.32-0.173-0.705-0.262-1.146-0.262
					c-0.381,0-0.726,0.081-1.038,0.241c-0.314,0.161-0.607,0.407-0.882,0.737c-0.191-0.325-0.431-0.572-0.725-0.735
					c-0.292-0.161-0.642-0.243-1.048-0.243c-0.395,0-0.748,0.079-1.07,0.241c-0.319,0.155-0.62,0.403-0.903,0.737v-0.153
					c0-0.261-0.073-0.466-0.222-0.615c-0.15-0.145-0.334-0.222-0.557-0.222c-0.226,0-0.412,0.078-0.556,0.239
					c-0.14,0.156-0.21,0.389-0.21,0.694v4.636c0,0.336,0.078,0.591,0.235,0.765c0.156,0.171,0.358,0.258,0.605,0.258
					c0.248,0,0.447-0.087,0.603-0.258c0.149-0.174,0.227-0.429,0.227-0.765v-2.188c0-0.684,0.086-1.206,0.253-1.566
					c0.169-0.369,0.517-0.551,1.048-0.551c0.264,0,0.459,0.072,0.582,0.22c0.121,0.142,0.197,0.331,0.226,0.552
					c0.027,0.227,0.04,0.544,0.04,0.953v2.581c0,0.341,0.078,0.594,0.232,0.767c0.148,0.171,0.35,0.256,0.595,0.256
					c0.254,0,0.454-0.085,0.61-0.256c0.156-0.173,0.23-0.426,0.23-0.767v-2.153c0-0.694,0.063-1.178,0.178-1.453
					c0.109-0.209,0.259-0.383,0.45-0.508c0.192-0.125,0.395-0.191,0.609-0.191c0.264,0,0.463,0.072,0.596,0.215
					c0.128,0.142,0.209,0.318,0.238,0.529c0.029,0.209,0.044,0.486,0.044,0.836v2.726c0,0.336,0.078,0.591,0.234,0.765
					c0.157,0.171,0.356,0.258,0.604,0.258c0.252,0,0.458-0.085,0.611-0.256c0.154-0.173,0.229-0.426,0.229-0.767v-3.164
					c0-0.629-0.068-1.09-0.206-1.385C324.128,474.71,323.889,474.46,323.569,474.286z"/>
			</g>
			<g id="XMLID_366_">
				<path id="XMLID_379_" style="fill:#279B9B;" d="M245.273,476.917c-0.001-0.004-0.001-0.006-0.001-0.011
					C245.272,476.911,245.272,476.913,245.273,476.917z"/>
				<path id="XMLID_378_" style="fill:#279B9B;" d="M245.355,477.435c0.001,0,0.001,0,0.001,0c-0.03-0.147-0.055-0.294-0.073-0.439
					C245.301,477.143,245.326,477.289,245.355,477.435z"/>
				<path id="XMLID_377_" style="fill:#279B9B;" d="M245.892,478.939c-0.004-0.006-0.007-0.013-0.011-0.021
					C245.885,478.926,245.888,478.933,245.892,478.939z"/>
				<path id="XMLID_376_" style="fill:#279B9B;" d="M245.84,478.839c-0.014-0.027-0.027-0.057-0.04-0.084
					C245.813,478.784,245.826,478.811,245.84,478.839z"/>
				<path id="XMLID_375_" style="fill:#279B9B;" d="M245.506,478.015c0.079,0.25,0.175,0.492,0.285,0.724
					c-0.113-0.236-0.206-0.48-0.284-0.724H245.506z"/>
				<path id="XMLID_374_" style="fill:#279B9B;" d="M250.736,470.154l-0.076-0.26c0.299-0.063,0.523-0.328,0.523-0.646
					c0-0.364-0.296-0.659-0.66-0.659c-0.365,0-0.66,0.295-0.66,0.659c0,0.317,0.225,0.583,0.522,0.646l0.084,0.29
					c-1.021,0.14-1.834,0.538-1.834,0.538l0.144,0.441c0.617-0.206,1.153-0.331,1.639-0.384c0.476-0.051,0.834-0.072,1.126-0.072
					c0.314,0,0.545,0.024,0.81,0.068l0.075-0.476C252.43,470.301,251.697,470.076,250.736,470.154z"/>
				<path id="XMLID_373_" style="fill:#279B9B;" d="M245.453,472.661c-0.017,0.023-0.497,0.465-0.876,1.279
					c-0.016-0.025-0.035-0.05-0.056-0.074c-0.114-0.124-0.273-0.188-0.474-0.184c-0.003,0-0.006,0-0.01,0
					c-0.125,0-0.21-0.041-0.266-0.092c0.056-0.071,0.089-0.161,0.089-0.259c0-0.23-0.188-0.418-0.419-0.418
					c-0.23,0-0.418,0.188-0.418,0.418c0,0.232,0.188,0.418,0.418,0.418c0.037,0,0.071-0.006,0.105-0.013
					c0.102,0.114,0.266,0.214,0.504,0.209c0.123-0.001,0.214,0.03,0.273,0.097c0.07,0.076,0.093,0.185,0.1,0.267
					c0,0.002,0,0.004-0.002,0.004c-0.272,0.743-0.194,1.669-0.194,1.669l0.661,0.025c0.014-0.336,0.062-0.926,0.232-1.394
					c0.329-0.906,0.741-1.472,0.758-1.495l0.003-0.005c0.024-0.031,0.047-0.061,0.071-0.089l-0.196-0.143L245.453,472.661z"/>
				<path id="XMLID_372_" style="fill:#279B9B;" d="M257.294,471.26c-0.23,0-0.419,0.188-0.419,0.418
					c0,0.036,0.006,0.07,0.015,0.104c-0.114,0.103-0.214,0.267-0.21,0.507c0.002,0.123-0.03,0.212-0.097,0.272
					c-0.053,0.047-0.119,0.072-0.185,0.088c-0.492-0.689-1.098-1.109-1.098-1.109l-0.474,0.508c0.358,0.326,0.725,0.734,1.08,1.244
					c0.246,0.352,0.499,0.806,0.71,1.259l0.64-0.304c0,0-0.292-0.722-0.703-1.369c0.071-0.025,0.143-0.065,0.206-0.12
					c0.125-0.113,0.188-0.273,0.184-0.474c-0.001-0.13,0.041-0.218,0.093-0.276c0.071,0.055,0.16,0.089,0.258,0.089
					c0.232,0,0.418-0.188,0.418-0.418C257.712,471.447,257.525,471.26,257.294,471.26z"/>
				<path id="XMLID_371_" style="fill:#279B9B;" d="M255.633,477.011c-0.88,0.429-2.33,0.995-4.236,1.262
					c-0.749,0.104-1.475,0.142-2.143,0.142c-0.869,0-1.637-0.064-2.227-0.139c-0.672-0.085-1.198-0.188-1.52-0.261
					c0.078,0.244,0.171,0.487,0.284,0.724c0.002,0.006,0.005,0.013,0.008,0.017c0.013,0.027,0.027,0.057,0.04,0.084
					c0.014,0.027,0.027,0.054,0.041,0.079c0.004,0.008,0.007,0.015,0.011,0.021c0.189,0.356,0.417,0.684,0.675,0.968
					c0.899,0.984,1.816,1.14,1.825,1.142l0.015,0.002l0.013,0.005c0.009,0.003,0.821,0.265,2.057,0.265
					c1.215,0,2.409-0.245,3.545-0.729c0.842-0.431,1.639-1.085,2.033-1.669c0.305-0.451,0.526-0.934,0.656-1.434
					c0.069-0.266,0.124-0.692,0.092-1.14C256.555,476.515,256.163,476.752,255.633,477.011z"/>
				<path id="XMLID_367_" style="fill:#279B9B;" d="M252.322,471.128c-0.265-0.043-0.477-0.068-0.777-0.068
					c-0.279,0-0.626,0.022-1.088,0.071c-0.465,0.049-0.982,0.171-1.583,0.373c-0.842,0.281-1.603,0.724-2.204,1.279l-0.02,0.019
					c-0.089,0.081-0.274,0.254-0.488,0.525c-0.025,0.038-0.408,0.578-0.709,1.408c-0.226,0.622-0.216,1.526-0.216,1.537v0.002
					c0,0.212,0.013,0.423,0.036,0.632c0,0.005,0,0.007,0.001,0.011c0.002,0.026,0.007,0.053,0.01,0.079
					c0.018,0.145,0.043,0.291,0.074,0.439c0.438,0.111,3.048,0.721,5.966,0.314c1.828-0.255,3.218-0.796,4.061-1.204
					c0.701-0.34,1.151-0.647,1.325-0.774c-0.174-0.643-0.651-1.649-1.089-2.278C254.367,471.702,253.016,471.242,252.322,471.128z
					 M248.679,476.387c-0.971,0-1.759-0.787-1.759-1.759c0-0.972,0.788-1.761,1.759-1.761c0.973,0,1.761,0.789,1.761,1.761
					C250.439,475.6,249.651,476.387,248.679,476.387z M253.828,475.09c-0.601,0-1.088-0.488-1.088-1.09s0.487-1.089,1.088-1.089
					s1.09,0.487,1.09,1.089S254.429,475.09,253.828,475.09z"/>
			</g>
		</g>
	</g>
</g>
</svg>
